<svg width="14" height="14" viewBox="0 0 14 14" fill="none" xmlns="http://www.w3.org/2000/svg">
<path d="M12.3745 11.465C13.0926 10.6011 13.592 9.5769 13.8305 8.47912C14.069 7.38134 14.0396 6.24226 13.7448 5.15824C13.45 4.07422 12.8985 3.07714 12.1368 2.25137C11.3752 1.42559 10.4258 0.795407 9.36913 0.414122C8.31242 0.032837 7.17943 -0.0883305 6.06598 0.0608694C4.95254 0.210069 3.89141 0.625248 2.97236 1.27128C2.05331 1.91732 1.30337 2.7752 0.785996 3.77237C0.268619 4.76953 -0.000981296 5.87664 2.68382e-06 7.00003C0.000380271 8.63312 0.575875 10.2139 1.6255 11.465L1.6155 11.4735C1.6505 11.5155 1.6905 11.5515 1.7265 11.593C1.7715 11.6445 1.82 11.693 1.8665 11.743C2.0065 11.895 2.1505 12.041 2.3015 12.178C2.3475 12.22 2.395 12.259 2.4415 12.299C2.6015 12.437 2.766 12.568 2.9365 12.69C2.9585 12.705 2.9785 12.7245 3.0005 12.74V12.734C4.17155 13.5581 5.56855 14.0004 7.0005 14.0004C8.43245 14.0004 9.82945 13.5581 11.0005 12.734V12.74C11.0225 12.7245 11.042 12.705 11.0645 12.69C11.2345 12.5675 11.3995 12.437 11.5595 12.299C11.606 12.259 11.6535 12.2195 11.6995 12.178C11.8505 12.0405 11.9945 11.895 12.1345 11.743C12.181 11.693 12.229 11.6445 12.2745 11.593C12.31 11.5515 12.3505 11.5155 12.3855 11.473L12.3745 11.465ZM7 3.00003C7.44501 3.00003 7.88003 3.13199 8.25004 3.37922C8.62005 3.62646 8.90843 3.97786 9.07873 4.38899C9.24903 4.80013 9.29359 5.25253 9.20677 5.68898C9.11995 6.12544 8.90566 6.52635 8.59099 6.84102C8.27632 7.15569 7.87541 7.36998 7.43896 7.4568C7.0025 7.54361 6.5501 7.49906 6.13897 7.32876C5.72783 7.15846 5.37643 6.87007 5.1292 6.50006C4.88196 6.13005 4.75 5.69504 4.75 5.25003C4.75 4.65329 4.98706 4.081 5.40901 3.65904C5.83097 3.23708 6.40327 3.00003 7 3.00003V3.00003ZM3.0035 11.465C3.01218 10.8085 3.27898 10.1818 3.74618 9.7205C4.21339 9.25919 4.84343 9.00037 5.5 9.00003H8.5C9.15658 9.00037 9.78662 9.25919 10.2538 9.7205C10.721 10.1818 10.9878 10.8085 10.9965 11.465C9.89992 12.4532 8.47613 13.0001 7 13.0001C5.52387 13.0001 4.10008 12.4532 3.0035 11.465V11.465Z" fill="black"/>
</svg>
